# xmcd CD Database Entry
#
# Track frame offsets:
# 150
# 17545
# 30854
# 46535
# 57326
# 71108
# 83514
# 99592
# 123338
# 140942
# 157362
# 178238
# 193991
# 202147
# 213793
# 235701
#
# Disc length: 3363 seconds
#
# Revision: 1
# Processed by: cddbd v1.4PL0 Copyright (c) Steve Scherf et al.
# Submitted via: tcd 2.0b
#
DISCID=e20d2110
DTITLE=Various Artist - Commercial Song's Encounter With Vincent
DYEAR=1900
DGENRE=
TTITLE0=Vincent
TTITLE1=Shake Your Bon Bon
TTITLE2=Breathless
TTITLE3=I Wanna Hold Your Hand
TTITLE4=San Francisco
TTITLE5=If You Love Me
TTITLE6=Ooh La La
TTITLE7=Be Alive
TTITLE8=Set Adrift On Memory Bliss
TTITLE9=Elevation
TTITLE10=Staring At The Sun
TTITLE11=The Second Time
TTITLE12=I Will Find You
TTITLE13=Drunken
TTITLE14=The Lord Of The Dance
TTITLE15=Salta
EXTD=
EXTT0=
EXTT1=
EXTT2=
EXTT3=
EXTT4=
EXTT5=
EXTT6=
EXTT7=
EXTT8=
EXTT9=
EXTT10=
EXTT11=
EXTT12=
EXTT13=
EXTT14=
EXTT15=
PLAYORDER=
